<svg width="195" height="145" viewBox="0 0 195 145" fill="none" xmlns="http://www.w3.org/2000/svg">
<path d="M9.69425 118.264L7.00625 117.56C7.00625 116.92 7.16625 116.6 7.48625 116.6C7.84892 116.6 9.03292 116.643 11.0383 116.728L17.5663 116.216C20.6169 116.216 23.1236 117.187 25.0863 119.128C27.0703 121.048 28.0623 123.885 28.0623 127.64C28.0623 131.373 27.0596 134.232 25.0543 136.216C23.0703 138.2 20.4036 139.192 17.0543 139.192L11.0383 138.744L7.48625 139C7.16625 139 7.00625 138.68 7.00625 138.04L9.69425 137.336V118.264ZM17.3743 137.688C19.7209 137.688 21.6196 136.845 23.0703 135.16C24.5209 133.475 25.2463 131.032 25.2463 127.832C25.2463 124.611 24.5209 122.157 23.0703 120.472C21.6196 118.787 19.7209 117.944 17.3743 117.944C15.5396 117.944 13.7689 118.147 12.0623 118.552L12.3823 127.8L12.0623 137.048C13.9823 137.475 15.7529 137.688 17.3743 137.688ZM38.5598 123.096C40.8851 123.096 42.7944 123.768 44.2878 125.112C45.7811 126.456 46.5278 128.44 46.5278 131.064C46.5278 133.688 45.7704 135.715 44.2558 137.144C42.7624 138.552 40.8104 139.256 38.3998 139.256C35.9891 139.256 34.0584 138.563 32.6078 137.176C31.1784 135.768 30.4638 133.773 30.4638 131.192C30.4638 128.589 31.2318 126.595 32.7678 125.208C34.3038 123.8 36.2344 123.096 38.5598 123.096ZM32.9598 131.128C32.9598 133.304 33.4718 134.968 34.4958 136.12C35.5198 137.272 36.8531 137.848 38.4958 137.848C40.1384 137.848 41.4718 137.272 42.4958 136.12C43.5198 134.968 44.0318 133.325 44.0318 131.192C44.0318 129.059 43.5198 127.437 42.4958 126.328C41.4718 125.197 40.1384 124.632 38.4958 124.632C37.4291 124.632 36.3411 124.792 35.2318 125.112C34.5491 125.624 33.9944 126.424 33.5677 127.512C33.1624 128.579 32.9598 129.784 32.9598 131.128ZM62.1203 134.392L61.9283 137.784C60.5416 138.765 58.7176 139.256 56.4563 139.256C54.1949 139.256 52.3496 138.563 50.9203 137.176C49.4909 135.768 48.7763 133.773 48.7763 131.192C48.7763 128.589 49.5443 126.595 51.0803 125.208C52.6163 123.8 54.5683 123.096 56.9363 123.096C58.8563 123.096 60.5416 123.565 61.9923 124.504L61.3203 128.024C60.4029 128.024 59.9443 127.853 59.9443 127.512V125.208C59.0483 124.909 58.0349 124.76 56.9043 124.76C55.7736 124.76 54.6536 124.92 53.5443 125.24C52.8616 125.752 52.3069 126.541 51.8802 127.608C51.4536 128.653 51.2403 129.827 51.2403 131.128C51.2403 133.261 51.7523 134.893 52.7763 136.024C53.8216 137.155 55.1016 137.72 56.6163 137.72C58.1309 137.72 59.3256 137.475 60.2003 136.984L60.7443 134.808C60.8509 134.531 61.3096 134.392 62.1203 134.392ZM79.6905 133.56C79.6905 135.416 78.9865 136.856 77.5785 137.88C76.1705 138.883 74.3678 139.384 72.1705 139.384C69.9945 139.384 67.7118 138.872 65.3225 137.848C65.7278 134.328 65.9732 132.568 66.0585 132.568C66.9758 132.568 67.4345 132.696 67.4345 132.952V136.504C68.8212 137.4 70.3678 137.848 72.0745 137.848C73.8025 137.848 75.0505 137.485 75.8185 136.76C76.5865 136.035 76.9705 135.107 76.9705 133.976C76.9705 132.504 76.2132 131.331 74.6985 130.456L69.0345 127.224C67.9678 126.627 67.1572 125.88 66.6025 124.984C66.0478 124.067 65.7705 123.107 65.7705 122.104C65.7705 120.504 66.4212 119.128 67.7225 117.976C69.0452 116.803 70.8372 116.216 73.0985 116.216C74.7412 116.216 76.5865 116.6 78.6345 117.368L77.8025 122.296C76.9065 122.296 76.4585 122.147 76.4585 121.848V118.616C75.3065 118.083 74.1225 117.816 72.9065 117.816C70.7305 117.816 69.1518 118.616 68.1705 120.216C68.0638 120.579 68.0105 121.005 68.0105 121.496C68.0105 122.968 68.8105 124.163 70.4105 125.08L75.9145 128.216C77.1305 128.92 78.0585 129.752 78.6985 130.712C79.3598 131.672 79.6905 132.621 79.6905 133.56ZM85.2493 137.56L87.3933 138.008C87.3933 138.669 87.2013 139 86.8173 139C86.6466 139 85.7186 138.968 84.0333 138.904L81.8253 139C81.4626 139 81.2812 138.68 81.2812 138.04L83.1373 137.56L88.5453 123.352H90.6253L96.0973 137.528L97.9533 138.04C97.9533 138.68 97.7613 139 97.3773 139C97.0146 139 96.1613 138.968 94.8173 138.904L92.0333 139C91.6493 139 91.4573 138.669 91.4573 138.008L93.6333 137.56L92.3533 134.008L86.4013 134.328L85.2493 137.56ZM89.3773 125.816L86.9453 132.664H91.8413L89.3773 125.816ZM112.433 134.392L112.241 137.784C110.854 138.765 109.03 139.256 106.769 139.256C104.507 139.256 102.662 138.563 101.233 137.176C99.8034 135.768 99.0888 133.773 99.0888 131.192C99.0888 128.589 99.8568 126.595 101.393 125.208C102.929 123.8 104.881 123.096 107.249 123.096C109.169 123.096 110.854 123.565 112.305 124.504L111.633 128.024C110.715 128.024 110.257 127.853 110.257 127.512V125.208C109.361 124.909 108.347 124.76 107.217 124.76C106.086 124.76 104.966 124.92 103.857 125.24C103.174 125.752 102.619 126.541 102.193 127.608C101.766 128.653 101.553 129.827 101.553 131.128C101.553 133.261 102.065 134.893 103.089 136.024C104.134 137.155 105.414 137.72 106.929 137.72C108.443 137.72 109.638 137.475 110.513 136.984L111.057 134.808C111.163 134.531 111.622 134.392 112.433 134.392ZM128.147 124.792L126.003 124.344C126.003 123.683 126.195 123.352 126.579 123.352C126.899 123.352 127.784 123.384 129.235 123.448L131.827 123.352C132.19 123.352 132.371 123.672 132.371 124.312L130.323 124.792V137.56L132.371 138.008C132.371 138.669 132.19 139 131.827 139L129.235 138.808L126.579 139C126.195 139 126.003 138.669 126.003 138.008L128.147 137.56L127.891 131.576L120.083 131.896L119.859 137.56L122.003 138.008C122.003 138.669 121.822 139 121.459 139L118.867 138.808L116.211 139C115.827 139 115.635 138.669 115.635 138.008L117.683 137.56V124.792L115.635 124.344C115.635 123.683 115.827 123.352 116.211 123.352C116.531 123.352 117.416 123.384 118.867 123.448L121.459 123.352C121.822 123.352 122.003 123.672 122.003 124.312L119.859 124.792L120.115 130.232H127.891L128.147 124.792ZM157.773 117.56L155.085 118.264V137.336L157.773 138.04C157.773 138.68 157.613 139 157.293 139C157.101 139 156.002 138.957 153.997 138.872L150.637 139C150.317 139 150.157 138.68 150.157 138.04L152.717 137.336L152.397 128.12L141.069 128.568L140.781 137.336L143.341 138.04C143.341 138.68 143.181 139 142.861 139C142.605 139 141.485 138.957 139.501 138.872L136.205 139C135.885 139 135.725 138.68 135.725 138.04L138.413 137.336V118.264L135.725 117.56C135.725 116.92 135.885 116.6 136.205 116.6C136.397 116.6 137.496 116.643 139.501 116.728L142.861 116.6C143.181 116.6 143.341 116.92 143.341 117.56L140.781 118.264L141.069 126.712H152.429L152.717 118.264L150.157 117.56C150.157 116.92 150.317 116.6 150.637 116.6C150.893 116.6 152.013 116.643 153.997 116.728L157.293 116.6C157.613 116.6 157.773 116.92 157.773 117.56ZM163.343 137.56L165.487 138.008C165.487 138.669 165.295 139 164.911 139C164.74 139 163.812 138.968 162.127 138.904L159.919 139C159.556 139 159.375 138.68 159.375 138.04L161.231 137.56L166.639 123.352H168.719L174.191 137.528L176.047 138.04C176.047 138.68 175.855 139 175.471 139C175.108 139 174.255 138.968 172.911 138.904L170.127 139C169.743 139 169.551 138.669 169.551 138.008L171.727 137.56L170.447 134.008L164.495 134.328L163.343 137.56ZM167.471 125.816L165.039 132.664H169.935L167.471 125.816ZM185.633 124.792C184.481 124.536 183.841 124.387 183.713 124.344C183.713 123.683 183.905 123.352 184.289 123.352L186.721 123.448L188.577 123.352C188.94 123.395 189.121 123.715 189.121 124.312L187.553 124.824L183.425 132.76V137.528L185.697 138.008C185.697 138.669 185.516 139 185.153 139L182.369 138.808L179.521 139C179.116 139 178.913 138.669 178.913 138.008L181.185 137.528V132.792L176.705 124.824L175.105 124.312C175.105 123.672 175.308 123.352 175.713 123.352C175.841 123.352 176.588 123.384 177.953 123.448L180.417 123.352C180.78 123.352 180.961 123.683 180.961 124.344L179.105 124.792C180.577 127.651 181.708 129.827 182.497 131.32L185.633 124.792Z" fill="#5978E0"/>
<g clip-path="url(#clip0_105_3)">
<path fill-rule="evenodd" clip-rule="evenodd" d="M98 108H96.4558C80.9115 94.774 59.1504 89.7861 31 94.7564C31.8796 92.3485 33.0005 90.0363 34.3454 87.855C61.1582 84.2943 82.3764 88.5655 98 100.669C113.624 88.5653 134.842 84.2941 161.655 87.855C162.999 90.0363 164.12 92.3485 165 94.7564C136.85 89.7861 115.088 94.774 99.5442 108H98Z" fill="#5978E0"/>
<path fill-rule="evenodd" clip-rule="evenodd" d="M57.6794 69.2801C74.5319 73.2037 87.9721 82.0346 98 95.7725C114.088 83.8821 133.591 79.3511 156.508 82.1796C155.84 81.4746 155.146 80.7839 154.426 80.1073C148.782 79.393 143.466 79.1616 138.478 79.4133C143.329 78.6088 147.924 78.1984 152.263 78.1821C151.329 77.3939 150.356 76.6267 149.346 75.8805L149.333 75.9336C142.403 75.979 136.038 76.6227 130.238 77.8649C136.007 75.9219 141.485 74.6374 146.67 74.0114C145.52 73.2513 144.326 72.5151 143.089 71.8029C137.109 72.8119 131.64 74.2279 126.682 76.0509C131.474 73.6403 136.113 71.7676 140.6 70.4328C139.855 70.0406 139.095 69.6563 138.321 69.2801C121.468 73.2037 108.028 82.0346 98 95.7725C81.9116 83.8821 62.4091 79.3511 39.4925 82.1796C40.1605 81.4746 40.8544 80.7839 41.5741 80.1073C47.2183 79.393 52.5342 79.1616 57.5219 79.4133C52.6707 78.6088 48.0757 78.1984 43.7371 78.1821C44.6719 77.3939 45.6443 76.6267 46.6544 75.8805L46.667 75.9336C53.5975 75.979 59.9625 76.6227 65.7621 77.8649C59.9926 75.9218 54.5151 74.6372 49.3295 74.0112C50.4799 73.2511 51.6739 72.5149 52.9113 71.8027C58.891 72.8119 64.3602 74.2279 69.3187 76.0509C64.5268 73.6403 59.8874 71.7676 55.4005 70.4328C56.1456 70.0406 56.9053 69.6563 57.6794 69.2801Z" fill="#98B0FF"/>
<path fill-rule="evenodd" clip-rule="evenodd" d="M106.85 13.2443V78.8715C103.662 81.4868 100.702 84.3687 98 87.4861C95.2983 84.3687 92.3375 81.4868 89.1495 78.8715V22.3603L106.85 13.2443Z" fill="#7494FF"/>
<path fill-rule="evenodd" clip-rule="evenodd" d="M81.1343 26.4879V73.197C75.6997 69.8945 69.7993 67.3109 63.4332 65.4461V35.6044L81.1343 26.4879Z" fill="#98B0FF"/>
<path fill-rule="evenodd" clip-rule="evenodd" d="M132.567 0V65.4461C126.208 67.3136 120.307 69.8972 114.866 73.197V9.11615L132.567 0Z" fill="#5978E0"/>
</g>
<defs>
<clipPath id="clip0_105_3">
<rect width="134" height="108" fill="white" transform="translate(31)"/>
</clipPath>
</defs>
</svg>
